<svg xmlns="http://www.w3.org/2000/svg" viewBox="0 0 640 600" fill="none">
<defs><linearGradient id="body" x1="150" y1="190" x2="430" y2="460" gradientUnits="userSpaceOnUse"><stop stop-color="#f3f5e9"/><stop offset=".5" stop-color="#a3b7ab"/><stop offset="1" stop-color="#70887a"/></linearGradient><linearGradient id="window" x1="270" y1="198" x2="420" y2="330" gradientUnits="userSpaceOnUse"><stop stop-color="#14251d"/><stop offset="1" stop-color="#52685b"/></linearGradient><pattern id="grid" width="64" height="64" patternUnits="userSpaceOnUse" patternTransform="matrix(1 .34 -1 .34 320 100)"><path d="M64 0H0V64" stroke="#3d5747" stroke-width="1"/></pattern></defs>
<rect width="640" height="600" fill="#1d3428"/><rect width="640" height="600" fill="url(#grid)" opacity=".55"/>
<path d="m65 362 278-160 251 142-280 163Z" fill="#18291f"/><path d="m72 375 237 139 265-153" stroke="#c6ee81" stroke-width="3" opacity=".6"/>
<path d="M101 332V146l48-27v185M516 349V161l-45-26v189" stroke="#415e4c" stroke-width="13"/><path d="m114 139 46-27m355 54-42-27" stroke="#c6ee81" stroke-width="5"/>
<ellipse cx="309" cy="399" rx="213" ry="83" fill="#0d1e15" opacity=".6"/>
<path d="m128 333 69-42 21-67 98-54 111 32 77 81 19 49-1 47-80 47-279-63-33-9Z" fill="url(#body)" stroke="#9daf9f" stroke-width="2"/>
<path d="m212 289 31-57 75-40 89 26 60 62-101 54Z" fill="url(#window)" stroke="#d6e2cf" stroke-width="4"/>
<path d="m243 232 113 49 51-63M356 281l10 53" stroke="#c5d4c4" stroke-width="5"/>
<path d="m208 292 155 52 117-62 23 24-126 70-218-33Z" fill="#c4d1c1"/>
<path d="m137 335 29-16 206 55 119-65 29 21-142 79-225-51Z" fill="#9cae9d"/>
<path d="m160 352 216 64 140-76v38l-78 47-272-58Z" fill="#667f6c"/>
<path d="m211 278 54 19M395 311l49-28" stroke="#edf2df" stroke-width="3" opacity=".4"/>
<path d="m170 348 38 12v15l-38-12Zm237 24 40-21v13l-40 23Z" fill="#def2a6"/>
<path d="m212 375 141 42v9l-141-42Z" fill="#344e3d"/>
<ellipse cx="242" cy="390" rx="25" ry="37" transform="rotate(-21 242 390)" fill="#12231a"/><ellipse cx="242" cy="390" rx="14" ry="23" transform="rotate(-21 242 390)" fill="#849a88"/><ellipse cx="242" cy="390" rx="7" ry="12" transform="rotate(-21 242 390)" fill="#253c2c"/>
<ellipse cx="464" cy="380" rx="22" ry="35" transform="rotate(20 464 380)" fill="#12231a"/><ellipse cx="464" cy="380" rx="12" ry="21" transform="rotate(20 464 380)" fill="#849a88"/><ellipse cx="464" cy="380" rx="6" ry="10" transform="rotate(20 464 380)" fill="#253c2c"/>
<path d="m292 313 30 9-2 9-30-10Zm111-6 27-15 4 7-27 15Z" fill="#354e3c"/>
<path d="m83 415 49 28m-20-36 49 28m339-36 50-29" stroke="#8fad77" stroke-width="2" stroke-dasharray="4 5"/>
<circle cx="512" cy="108" r="30" fill="#c6ee81"/><path d="m501 109 8 8 16-19" stroke="#17231e" stroke-width="4" stroke-linecap="round" stroke-linejoin="round"/>
<path d="M90 232h28m-14-14v28M548 419h20m-10-10v20" stroke="#c6ee81" stroke-width="2" opacity=".7"/>
</svg>
